<svg width="21" height="24" viewBox="0 0 21 24" fill="none" xmlns="http://www.w3.org/2000/svg">
<path d="M16.8283 12.7632C16.801 9.73112 19.3109 8.25602 19.4257 8.18734C18.0042 6.11487 15.8011 5.83171 15.0269 5.80913C13.1764 5.61439 11.3815 6.91639 10.4388 6.91639C9.47738 6.91639 8.02581 5.82795 6.46134 5.85993C4.44814 5.89098 2.56485 7.05656 1.53183 8.86657C-0.599828 12.5571 0.989957 17.9805 3.0324 20.9637C4.05397 22.4256 5.24786 24.0559 6.81036 23.9985C8.33908 23.9364 8.91011 23.0248 10.7549 23.0248C12.5827 23.0248 13.119 23.9985 14.7126 23.9618C16.3533 23.9364 17.3862 22.4943 18.3722 21.0201C19.5528 19.3465 20.0268 17.6964 20.0457 17.6118C20.008 17.5986 16.8603 16.3963 16.8283 12.7632ZM13.8179 3.84673C14.64 2.81849 15.2027 1.41959 15.0465 0C13.8564 0.052682 12.3682 0.823156 11.5111 1.82882C10.7529 2.715 10.0755 4.16752 10.2505 5.53349C11.5874 5.63321 12.96 4.85897 13.8179 3.84673Z" fill="white"/>
</svg>
