<svg width="77" height="24" viewBox="0 0 77 24" fill="none" xmlns="http://www.w3.org/2000/svg">
<path d="M0.366875 18L4.11088 6.48H6.51888L10.2629 18H8.52688L5.07888 7.488H5.51088L2.10287 18H0.366875ZM2.31088 15.4V13.832H8.32688V15.4H2.31088ZM15.7541 18.24C14.9275 18.24 14.2341 18.04 13.6741 17.64C13.1141 17.2347 12.6901 16.688 12.4021 16C12.1141 15.312 11.9701 14.536 11.9701 13.672C11.9701 12.808 12.1115 12.032 12.3941 11.344C12.6821 10.656 13.1035 10.1147 13.6581 9.72C14.2181 9.32 14.9061 9.12 15.7221 9.12C16.5328 9.12 17.2315 9.32 17.8181 9.72C18.4101 10.1147 18.8661 10.656 19.1861 11.344C19.5061 12.0267 19.6661 12.8027 19.6661 13.672C19.6661 14.536 19.5061 15.3147 19.1861 16.008C18.8715 16.696 18.4208 17.24 17.8341 17.64C17.2528 18.04 16.5595 18.24 15.7541 18.24ZM11.6901 21.84V9.36H13.1781V15.576H13.3701V21.84H11.6901ZM15.5221 16.728C16.0555 16.728 16.4955 16.592 16.8421 16.32C17.1941 16.048 17.4555 15.6827 17.6261 15.224C17.8021 14.76 17.8901 14.2427 17.8901 13.672C17.8901 13.1067 17.8021 12.5947 17.6261 12.136C17.4555 11.6773 17.1915 11.312 16.8341 11.04C16.4768 10.768 16.0208 10.632 15.4661 10.632C14.9435 10.632 14.5115 10.76 14.1701 11.016C13.8341 11.272 13.5835 11.6293 13.4181 12.088C13.2581 12.5467 13.1781 13.0747 13.1781 13.672C13.1781 14.2693 13.2581 14.7973 13.4181 15.256C13.5781 15.7147 13.8315 16.0747 14.1781 16.336C14.5248 16.5973 14.9728 16.728 15.5221 16.728ZM25.4885 18.24C24.6618 18.24 23.9685 18.04 23.4085 17.64C22.8485 17.2347 22.4245 16.688 22.1365 16C21.8485 15.312 21.7045 14.536 21.7045 13.672C21.7045 12.808 21.8458 12.032 22.1285 11.344C22.4165 10.656 22.8378 10.1147 23.3925 9.72C23.9525 9.32 24.6405 9.12 25.4565 9.12C26.2672 9.12 26.9658 9.32 27.5525 9.72C28.1445 10.1147 28.6005 10.656 28.9205 11.344C29.2405 12.0267 29.4005 12.8027 29.4005 13.672C29.4005 14.536 29.2405 15.3147 28.9205 16.008C28.6058 16.696 28.1552 17.24 27.5685 17.64C26.9872 18.04 26.2938 18.24 25.4885 18.24ZM21.4245 21.84V9.36H22.9125V15.576H23.1045V21.84H21.4245ZM25.2565 16.728C25.7898 16.728 26.2298 16.592 26.5765 16.32C26.9285 16.048 27.1898 15.6827 27.3605 15.224C27.5365 14.76 27.6245 14.2427 27.6245 13.672C27.6245 13.1067 27.5365 12.5947 27.3605 12.136C27.1898 11.6773 26.9258 11.312 26.5685 11.04C26.2112 10.768 25.7552 10.632 25.2005 10.632C24.6778 10.632 24.2458 10.76 23.9045 11.016C23.5685 11.272 23.3178 11.6293 23.1525 12.088C22.9925 12.5467 22.9125 13.0747 22.9125 13.672C22.9125 14.2693 22.9925 14.7973 23.1525 15.256C23.3125 15.7147 23.5658 16.0747 23.9125 16.336C24.2592 16.5973 24.7072 16.728 25.2565 16.728ZM38.546 18.24C37.7193 18.24 36.9727 18.0987 36.306 17.816C35.6447 17.528 35.098 17.12 34.666 16.592C34.2393 16.0587 33.962 15.4267 33.834 14.696L35.578 14.432C35.754 15.136 36.122 15.6853 36.682 16.08C37.242 16.4693 37.8953 16.664 38.642 16.664C39.106 16.664 39.5327 16.592 39.922 16.448C40.3113 16.2987 40.6233 16.088 40.858 15.816C41.098 15.5387 41.218 15.208 41.218 14.824C41.218 14.616 41.1807 14.432 41.106 14.272C41.0367 14.112 40.938 13.9733 40.81 13.856C40.6873 13.7333 40.5353 13.6293 40.354 13.544C40.178 13.4533 39.9833 13.376 39.77 13.312L36.818 12.44C36.53 12.3547 36.2367 12.2453 35.938 12.112C35.6393 11.9733 35.3647 11.7947 35.114 11.576C34.8687 11.352 34.6687 11.0773 34.514 10.752C34.3593 10.4213 34.282 10.0213 34.282 9.552C34.282 8.84267 34.4633 8.24267 34.826 7.752C35.194 7.256 35.69 6.88267 36.314 6.632C36.938 6.376 37.6367 6.248 38.41 6.248C39.1887 6.25867 39.8847 6.39733 40.498 6.664C41.1167 6.93067 41.6287 7.31467 42.034 7.816C42.4447 8.312 42.7273 8.91467 42.882 9.624L41.09 9.928C41.01 9.496 40.8393 9.12533 40.578 8.816C40.3167 8.50133 39.9967 8.26133 39.618 8.096C39.2393 7.92533 38.8287 7.83733 38.386 7.832C37.9593 7.82133 37.5673 7.88533 37.21 8.024C36.858 8.16267 36.5753 8.35733 36.362 8.608C36.154 8.85867 36.05 9.14667 36.05 9.472C36.05 9.792 36.1433 10.0507 36.33 10.248C36.5167 10.4453 36.746 10.6027 37.018 10.72C37.2953 10.832 37.57 10.9253 37.842 11L39.97 11.6C40.2367 11.6747 40.538 11.776 40.874 11.904C41.2153 12.0267 41.5433 12.2 41.858 12.424C42.178 12.648 42.442 12.9467 42.65 13.32C42.858 13.688 42.962 14.152 42.962 14.712C42.962 15.2933 42.8447 15.8053 42.61 16.248C42.3753 16.6853 42.0527 17.0533 41.642 17.352C41.2367 17.6453 40.7673 17.8667 40.234 18.016C39.7007 18.1653 39.138 18.24 38.546 18.24ZM49.6109 18C49.0669 18.1067 48.5335 18.152 48.0109 18.136C47.4882 18.12 47.0215 18.0187 46.6109 17.832C46.2002 17.6453 45.8909 17.352 45.6829 16.952C45.4962 16.5947 45.3949 16.232 45.3789 15.864C45.3682 15.4907 45.3629 15.0693 45.3629 14.6V6.96H47.0429V14.52C47.0429 14.8667 47.0455 15.168 47.0509 15.424C47.0615 15.68 47.1175 15.896 47.2189 16.072C47.4109 16.4027 47.7149 16.592 48.1309 16.64C48.5522 16.6827 49.0455 16.664 49.6109 16.584V18ZM43.7069 10.704V9.36H49.6109V10.704H43.7069ZM54.7783 18.24C53.9143 18.24 53.1649 18.0453 52.5303 17.656C51.8956 17.2667 51.4049 16.7307 51.0583 16.048C50.7169 15.36 50.5463 14.568 50.5463 13.672C50.5463 12.7707 50.7223 11.9787 51.0743 11.296C51.4263 10.608 51.9196 10.0747 52.5543 9.696C53.1889 9.312 53.9303 9.12 54.7783 9.12C55.6423 9.12 56.3916 9.31467 57.0263 9.704C57.6609 10.0933 58.1516 10.6293 58.4983 11.312C58.8449 11.9947 59.0183 12.7813 59.0183 13.672C59.0183 14.5733 58.8423 15.368 58.4903 16.056C58.1436 16.7387 57.6529 17.2747 57.0183 17.664C56.3836 18.048 55.6369 18.24 54.7783 18.24ZM54.7783 16.664C55.6049 16.664 56.2209 16.3867 56.6263 15.832C57.0369 15.272 57.2423 14.552 57.2423 13.672C57.2423 12.7707 57.0343 12.0507 56.6183 11.512C56.2076 10.968 55.5943 10.696 54.7783 10.696C54.2183 10.696 53.7569 10.824 53.3943 11.08C53.0316 11.3307 52.7623 11.68 52.5863 12.128C52.4103 12.5707 52.3223 13.0853 52.3223 13.672C52.3223 14.5787 52.5303 15.304 52.9463 15.848C53.3623 16.392 53.9729 16.664 54.7783 16.664ZM60.7763 18V9.36H62.2643V11.456L62.0563 11.184C62.1629 10.9067 62.3016 10.6533 62.4723 10.424C62.6429 10.1893 62.8403 9.99733 63.0643 9.848C63.2829 9.688 63.5256 9.56533 63.7923 9.48C64.0643 9.38933 64.3416 9.336 64.6243 9.32C64.9069 9.29867 65.1789 9.312 65.4403 9.36V10.928C65.1576 10.8533 64.8429 10.832 64.4963 10.864C64.1549 10.896 63.8403 11.0053 63.5523 11.192C63.2803 11.368 63.0643 11.5813 62.9043 11.832C62.7496 12.0827 62.6376 12.3627 62.5683 12.672C62.4989 12.976 62.4643 13.2987 62.4643 13.64V18H60.7763ZM70.6395 18.24C69.7808 18.24 69.0262 18.0533 68.3755 17.68C67.7302 17.3013 67.2262 16.776 66.8635 16.104C66.5062 15.4267 66.3275 14.6427 66.3275 13.752C66.3275 12.808 66.5035 11.9893 66.8555 11.296C67.2128 10.6027 67.7088 10.0667 68.3435 9.688C68.9782 9.30933 69.7168 9.12 70.5595 9.12C71.4395 9.12 72.1888 9.32533 72.8075 9.736C73.4262 10.1413 73.8875 10.72 74.1915 11.472C74.5008 12.224 74.6235 13.1173 74.5595 14.152H72.8875V13.544C72.8768 12.5413 72.6848 11.8 72.3115 11.32C71.9435 10.84 71.3808 10.6 70.6235 10.6C69.7862 10.6 69.1568 10.864 68.7355 11.392C68.3142 11.92 68.1035 12.6827 68.1035 13.68C68.1035 14.6293 68.3142 15.3653 68.7355 15.888C69.1568 16.4053 69.7648 16.664 70.5595 16.664C71.0822 16.664 71.5328 16.5467 71.9115 16.312C72.2955 16.072 72.5942 15.7307 72.8075 15.288L74.4475 15.808C74.1115 16.5813 73.6022 17.1813 72.9195 17.608C72.2368 18.0293 71.4768 18.24 70.6395 18.24ZM67.5595 14.152V12.848H73.7275V14.152H67.5595Z" fill="white"/>
</svg>
