<svg width="91" height="24" viewBox="0 0 91 24" fill="none" xmlns="http://www.w3.org/2000/svg">
<path d="M6.35153 18.24C5.5782 18.24 4.8662 18.1067 4.21553 17.84C3.56486 17.568 2.99953 17.1733 2.51953 16.656C2.03953 16.1387 1.6662 15.5093 1.39953 14.768C1.13286 14.0267 0.999531 13.184 0.999531 12.24C0.999531 10.9973 1.2262 9.93067 1.67953 9.04C2.13286 8.144 2.7622 7.456 3.56753 6.976C4.37286 6.49067 5.30086 6.248 6.35153 6.248C7.7062 6.248 8.7862 6.56267 9.59153 7.192C10.4022 7.82133 10.9542 8.69067 11.2475 9.8L9.55153 10.104C9.31686 9.416 8.9382 8.86667 8.41553 8.456C7.89287 8.04533 7.23687 7.83733 6.44753 7.832C5.63153 7.82667 4.95153 8.008 4.40753 8.376C3.86886 8.744 3.46353 9.26133 3.19153 9.928C2.91953 10.5893 2.78086 11.36 2.77553 12.24C2.7702 13.12 2.90353 13.8907 3.17553 14.552C3.44753 15.208 3.85553 15.72 4.39953 16.088C4.94886 16.456 5.63153 16.6427 6.44753 16.648C7.10353 16.6587 7.6662 16.5387 8.13553 16.288C8.6102 16.032 8.9862 15.6587 9.26353 15.168C9.54087 14.6773 9.71953 14.0747 9.79953 13.36H7.55953V12.016H11.5755C11.5862 12.112 11.5942 12.24 11.5995 12.4C11.6049 12.5547 11.6075 12.6533 11.6075 12.696C11.6075 13.7627 11.4022 14.7147 10.9915 15.552C10.5809 16.3893 9.98353 17.048 9.19953 17.528C8.41553 18.0027 7.4662 18.24 6.35153 18.24ZM16.954 18.24C16.09 18.24 15.3407 18.0453 14.706 17.656C14.0714 17.2667 13.5807 16.7307 13.234 16.048C12.8927 15.36 12.722 14.568 12.722 13.672C12.722 12.7707 12.898 11.9787 13.25 11.296C13.602 10.608 14.0954 10.0747 14.73 9.696C15.3647 9.312 16.106 9.12 16.954 9.12C17.818 9.12 18.5674 9.31467 19.202 9.704C19.8367 10.0933 20.3274 10.6293 20.674 11.312C21.0207 11.9947 21.194 12.7813 21.194 13.672C21.194 14.5733 21.018 15.368 20.666 16.056C20.3194 16.7387 19.8287 17.2747 19.194 17.664C18.5594 18.048 17.8127 18.24 16.954 18.24ZM16.954 16.664C17.7807 16.664 18.3967 16.3867 18.802 15.832C19.2127 15.272 19.418 14.552 19.418 13.672C19.418 12.7707 19.21 12.0507 18.794 11.512C18.3834 10.968 17.77 10.696 16.954 10.696C16.394 10.696 15.9327 10.824 15.57 11.08C15.2074 11.3307 14.938 11.68 14.762 12.128C14.586 12.5707 14.498 13.0853 14.498 13.672C14.498 14.5787 14.706 15.304 15.122 15.848C15.538 16.392 16.1487 16.664 16.954 16.664ZM26.704 18.24C25.84 18.24 25.0907 18.0453 24.456 17.656C23.8214 17.2667 23.3307 16.7307 22.984 16.048C22.6427 15.36 22.472 14.568 22.472 13.672C22.472 12.7707 22.648 11.9787 23 11.296C23.352 10.608 23.8454 10.0747 24.48 9.696C25.1147 9.312 25.856 9.12 26.704 9.12C27.568 9.12 28.3174 9.31467 28.952 9.704C29.5867 10.0933 30.0774 10.6293 30.424 11.312C30.7707 11.9947 30.944 12.7813 30.944 13.672C30.944 14.5733 30.768 15.368 30.416 16.056C30.0694 16.7387 29.5787 17.2747 28.944 17.664C28.3094 18.048 27.5627 18.24 26.704 18.24ZM26.704 16.664C27.5307 16.664 28.1467 16.3867 28.552 15.832C28.9627 15.272 29.168 14.552 29.168 13.672C29.168 12.7707 28.96 12.0507 28.544 11.512C28.1334 10.968 27.52 10.696 26.704 10.696C26.144 10.696 25.6827 10.824 25.32 11.08C24.9574 11.3307 24.688 11.68 24.512 12.128C24.336 12.5707 24.248 13.0853 24.248 13.672C24.248 14.5787 24.456 15.304 24.872 15.848C25.288 16.392 25.8987 16.664 26.704 16.664ZM36.262 22.08C35.798 22.08 35.3474 22.008 34.91 21.864C34.478 21.72 34.0834 21.5067 33.726 21.224C33.3687 20.9467 33.0727 20.6027 32.838 20.192L34.382 19.408C34.5687 19.776 34.8354 20.0453 35.182 20.216C35.5287 20.3867 35.894 20.472 36.278 20.472C36.7527 20.472 37.158 20.3867 37.494 20.216C37.83 20.0507 38.0834 19.8 38.254 19.464C38.43 19.128 38.5154 18.712 38.51 18.216V15.8H38.71V9.36H40.19V18.232C40.19 18.4613 40.182 18.68 40.166 18.888C40.15 19.096 40.1207 19.304 40.078 19.512C39.9554 20.0933 39.7207 20.5733 39.374 20.952C39.0327 21.3307 38.5954 21.6133 38.062 21.8C37.534 21.9867 36.934 22.08 36.262 22.08ZM36.134 18.24C35.3287 18.24 34.6327 18.04 34.046 17.64C33.4647 17.24 33.014 16.696 32.694 16.008C32.3794 15.3147 32.222 14.536 32.222 13.672C32.222 12.8027 32.382 12.0267 32.702 11.344C33.022 10.656 33.4754 10.1147 34.062 9.72C34.654 9.32 35.3554 9.12 36.166 9.12C36.982 9.12 37.6674 9.32 38.222 9.72C38.782 10.1147 39.2034 10.656 39.486 11.344C39.774 12.032 39.918 12.808 39.918 13.672C39.918 14.536 39.774 15.312 39.486 16C39.198 16.688 38.774 17.2347 38.214 17.64C37.654 18.04 36.9607 18.24 36.134 18.24ZM36.366 16.728C36.9154 16.728 37.3634 16.5973 37.71 16.336C38.0567 16.0747 38.31 15.7147 38.47 15.256C38.63 14.7973 38.71 14.2693 38.71 13.672C38.71 13.0747 38.6274 12.5467 38.462 12.088C38.302 11.6293 38.0514 11.272 37.71 11.016C37.374 10.76 36.9447 10.632 36.422 10.632C35.8674 10.632 35.4114 10.768 35.054 11.04C34.6967 11.312 34.43 11.6773 34.254 12.136C34.0834 12.5947 33.998 13.1067 33.998 13.672C33.998 14.2427 34.0834 14.76 34.254 15.224C34.43 15.6827 34.6914 16.048 35.038 16.32C35.39 16.592 35.8327 16.728 36.366 16.728ZM42.5964 18V6.24H44.2684V18H42.5964ZM50.5028 18.24C49.6441 18.24 48.8894 18.0533 48.2388 17.68C47.5934 17.3013 47.0894 16.776 46.7268 16.104C46.3694 15.4267 46.1908 14.6427 46.1908 13.752C46.1908 12.808 46.3668 11.9893 46.7188 11.296C47.0761 10.6027 47.5721 10.0667 48.2068 9.688C48.8414 9.30933 49.5801 9.12 50.4228 9.12C51.3028 9.12 52.0521 9.32533 52.6708 9.736C53.2894 10.1413 53.7508 10.72 54.0548 11.472C54.3641 12.224 54.4868 13.1173 54.4228 14.152H52.7508V13.544C52.7401 12.5413 52.5481 11.8 52.1748 11.32C51.8068 10.84 51.2441 10.6 50.4868 10.6C49.6494 10.6 49.0201 10.864 48.5988 11.392C48.1774 11.92 47.9668 12.6827 47.9668 13.68C47.9668 14.6293 48.1774 15.3653 48.5988 15.888C49.0201 16.4053 49.6281 16.664 50.4228 16.664C50.9454 16.664 51.3961 16.5467 51.7748 16.312C52.1588 16.072 52.4574 15.7307 52.6708 15.288L54.3108 15.808C53.9748 16.5813 53.4654 17.1813 52.7828 17.608C52.1001 18.0293 51.3401 18.24 50.5028 18.24ZM47.4228 14.152V12.848H53.5908V14.152H47.4228ZM59.4208 18V6.48H64.0768C64.1888 6.48 64.3274 6.48533 64.4928 6.496C64.6581 6.50133 64.8154 6.51733 64.9648 6.544C65.6048 6.64533 66.1381 6.864 66.5648 7.2C66.9968 7.536 67.3194 7.96 67.5328 8.472C67.7461 8.984 67.8528 9.54933 67.8528 10.168C67.8528 10.792 67.7461 11.36 67.5328 11.872C67.3194 12.384 66.9968 12.808 66.5648 13.144C66.1381 13.48 65.6048 13.6987 64.9648 13.8C64.8154 13.8213 64.6554 13.8373 64.4848 13.848C64.3194 13.8587 64.1834 13.864 64.0768 13.864H61.0928V18H59.4208ZM61.0928 12.28H64.0128C64.1194 12.28 64.2368 12.2747 64.3648 12.264C64.4981 12.2533 64.6234 12.2347 64.7408 12.208C65.0821 12.128 65.3568 11.9813 65.5648 11.768C65.7728 11.5493 65.9221 11.2987 66.0128 11.016C66.1034 10.7333 66.1488 10.4507 66.1488 10.168C66.1488 9.88533 66.1034 9.60533 66.0128 9.328C65.9221 9.04533 65.7728 8.79733 65.5648 8.584C65.3568 8.36533 65.0821 8.216 64.7408 8.136C64.6234 8.104 64.4981 8.08267 64.3648 8.072C64.2368 8.06133 64.1194 8.056 64.0128 8.056H61.0928V12.28ZM69.612 18V6.24H71.284V18H69.612ZM76.1264 18.24C75.4864 18.24 74.9504 18.1227 74.5184 17.888C74.0864 17.648 73.7584 17.3333 73.5344 16.944C73.3157 16.5493 73.2064 16.1173 73.2064 15.648C73.2064 15.2107 73.2837 14.8267 73.4384 14.496C73.5931 14.1653 73.8224 13.8853 74.1264 13.656C74.4304 13.4213 74.8037 13.232 75.2464 13.088C75.6304 12.976 76.0651 12.8773 76.5504 12.792C77.0357 12.7067 77.5451 12.6267 78.0784 12.552C78.6171 12.4773 79.1504 12.4027 79.6784 12.328L79.0704 12.664C79.0811 11.9867 78.9371 11.4853 78.6384 11.16C78.3451 10.8293 77.8384 10.664 77.1184 10.664C76.6651 10.664 76.2491 10.7707 75.8704 10.984C75.4917 11.192 75.2277 11.5387 75.0784 12.024L73.5184 11.544C73.7317 10.8027 74.1371 10.2133 74.7344 9.776C75.3371 9.33867 76.1371 9.12 77.1344 9.12C77.9077 9.12 78.5797 9.25333 79.1504 9.52C79.7264 9.78133 80.1477 10.1973 80.4144 10.768C80.5531 11.0507 80.6384 11.3493 80.6704 11.664C80.7024 11.9787 80.7184 12.3173 80.7184 12.68V18H79.2384V16.024L79.5264 16.28C79.1691 16.9413 78.7131 17.4347 78.1584 17.76C77.6091 18.08 76.9317 18.24 76.1264 18.24ZM76.4224 16.872C76.8971 16.872 77.3051 16.7893 77.6464 16.624C77.9877 16.4533 78.2624 16.2373 78.4704 15.976C78.6784 15.7147 78.8144 15.4427 78.8784 15.16C78.9691 14.904 79.0197 14.616 79.0304 14.296C79.0464 13.976 79.0544 13.72 79.0544 13.528L79.5984 13.728C79.0704 13.808 78.5904 13.88 78.1584 13.944C77.7264 14.008 77.3344 14.072 76.9824 14.136C76.6357 14.1947 76.3264 14.2667 76.0544 14.352C75.8251 14.432 75.6197 14.528 75.4384 14.64C75.2624 14.752 75.1211 14.888 75.0144 15.048C74.9131 15.208 74.8624 15.4027 74.8624 15.632C74.8624 15.856 74.9184 16.064 75.0304 16.256C75.1424 16.4427 75.3131 16.592 75.5424 16.704C75.7717 16.816 76.0651 16.872 76.4224 16.872ZM83.4794 21.84L85.1514 17.288L85.1754 18.632L81.4074 9.36H83.1514L85.9674 16.52H85.4554L88.1434 9.36H89.8394L85.0714 21.84H83.4794Z" fill="white"/>
</svg>
